External Loads File
version=1
nRows=70
nColumns=13
Range=5.000000e-03-10 seconds
endheader
time 	forceRightX 	forceRightY 	forceRightZ 	pointRightX 	pointRightY 	pointRightZ 	forceLeftX 	forceLeftY 	forceLeftZ 	pointLeftX 	pointLeftY 	pointLeftZ 		
5.005000 60.272843 646.102329 -0.000000 0.233795 0.165342 -0.102181 -3.395645 -100.706851 -0.000000 0.125960 0.466369 -0.342147
5.010000 77.248340 612.112327 -0.000000 0.225658 0.161136 -0.102019 -23.890009 -114.932795 -0.000000 0.135469 0.471509 -0.342052
5.015000 92.396882 575.561026 -0.000000 0.217159 0.157573 -0.101958 -44.060642 -128.054983 -0.000000 0.145206 0.476209 -0.341620
5.020000 104.597957 537.845640 -0.000000 0.208410 0.154654 -0.101828 -63.058082 -139.558679 -0.000000 0.154520 0.480298 -0.341394
5.025000 115.415026 499.867239 -0.000000 0.199388 0.152350 -0.101755 -80.648988 -148.683102 -0.000000 0.164120 0.483718 -0.341001
5.030000 125.091397 462.464658 -0.000000 0.190021 0.150615 -0.101748 -96.386743 -154.773355 -0.000000 0.173877 0.486571 -0.340867
5.035000 133.374684 426.266035 -0.000000 0.180377 0.149347 -0.101755 -109.716528 -157.459972 -0.000000 0.183539 0.488648 -0.340490
5.040000 140.576142 391.351768 -0.000000 0.170585 0.148935 -0.101737 -120.387076 -156.507159 -0.000000 0.193304 0.490173 -0.340421
5.045000 146.318269 357.656279 -0.000000 0.160755 0.149023 -0.101800 -128.068730 -152.100114 -0.000000 0.202958 0.490967 -0.340286
5.050000 150.363048 324.842926 -0.000000 0.151139 0.149872 -0.101830 -132.701514 -144.587232 -0.000000 0.212446 0.490886 -0.340233
5.055000 152.460709 292.520996 -0.000000 0.141725 0.151431 -0.101869 -134.464490 -134.421063 -0.000000 0.221582 0.490144 -0.340417
5.060000 152.448073 260.427817 -0.000000 0.132634 0.153564 -0.101765 -133.762082 -122.104265 -0.000000 0.230420 0.488881 -0.340681
5.065000 150.447041 228.454542 -0.000000 0.123787 0.156419 -0.101724 -131.265295 -108.066045 -0.000000 0.238810 0.486734 -0.341029
5.070000 146.538558 196.847040 -0.000000 0.115200 0.159971 -0.101726 -127.711982 -92.718134 -0.000000 0.246753 0.484188 -0.341695
5.075000 141.038331 165.992760 -0.000000 0.106951 0.164013 -0.101821 -123.941560 -76.198181 -0.000000 0.254143 0.480567 -0.342293
5.080000 134.399057 136.379410 -0.000000 0.099001 0.168838 -0.101893 -120.748334 -58.365436 -0.000000 0.261142 0.476400 -0.343245
5.085000 127.013405 108.671290 -0.000000 0.091300 0.174111 -0.101946 -118.723729 -38.986811 -0.000000 0.267561 0.471207 -0.343867
5.090000 119.308183 83.538127 -0.000000 0.083900 0.179968 -0.101954 -118.264598 -17.760759 -0.000000 0.273410 0.465299 -0.344492
5.095000 111.703392 61.555242 -0.000000 0.076778 0.186296 -0.102073 -119.559906 5.607448 -0.000000 0.278633 0.458639 -0.345208
5.100000 104.554099 43.125040 -0.000000 0.069980 0.193181 -0.102096 -122.612345 31.372888 -0.000000 0.283469 0.451556 -0.345729
5.105000 98.074425 28.552121 -0.000000 0.063527 0.200457 -0.102154 -127.384231 59.569414 -0.000000 0.287594 0.444117 -0.346230
5.110000 92.455654 17.676027 -0.000000 0.057458 0.208014 -0.102100 -133.834943 90.382991 -0.000000 0.291226 0.436113 -0.346527
5.115000 87.740698 9.964740 -0.000000 0.051838 0.216369 -0.102095 -141.796370 124.112261 -0.000000 0.294605 0.427397 -0.346703
5.120000 83.786274 4.975064 -0.000000 0.046596 0.224869 -0.102040 -151.415240 160.488671 -0.000000 0.297661 0.417994 -0.346995
5.125000 80.366178 2.016967 -0.000000 0.041863 0.233962 -0.101996 -162.634006 199.285387 -0.000000 0.300447 0.408131 -0.347304
5.130000 77.150387 0.502882 -0.000000 0.037531 0.243408 -0.102019 -175.267575 240.084920 -0.000000 0.303215 0.397746 -0.347586
5.135000 73.786380 0.179820 -0.000000 0.033758 0.253179 -0.102072 -189.506250 282.057993 -0.000000 0.305778 0.387226 -0.347553
5.140000 70.012611 0.846008 -0.000000 0.030557 0.263205 -0.102124 -204.965641 324.766028 -0.000000 0.308235 0.376429 -0.347844
5.145000 65.756356 2.558145 -0.000000 0.027970 0.273477 -0.102223 -221.274650 367.617600 -0.000000 0.310318 0.365445 -0.347922
5.150000 61.214449 5.440496 -0.000000 0.026062 0.283911 -0.102373 -237.861336 409.989665 -0.000000 0.311860 0.354388 -0.348630
5.155000 56.867741 9.548928 -0.000000 0.024734 0.294421 -0.102546 -254.053595 451.378461 -0.000000 0.313357 0.343439 -0.348774
5.160000 53.360929 14.773514 -0.000000 0.023979 0.304971 -0.102720 -268.992909 491.616922 -0.000000 0.314234 0.332390 -0.348654
5.165000 51.281124 20.822746 -0.000000 0.023982 0.315679 -0.102855 -281.615004 530.783938 -0.000000 0.314558 0.321252 -0.348171
5.170000 50.937445 27.292670 -0.000000 0.024548 0.326511 -0.102921 -291.272712 568.766131 -0.000000 0.314280 0.310144 -0.348213
5.175000 52.265184 33.697791 -0.000000 0.025668 0.337268 -0.102916 -297.685492 605.336606 -0.000000 0.313553 0.299070 -0.348186
5.180000 54.865913 39.517424 -0.000000 0.027617 0.347944 -0.102956 -300.486755 640.387380 -0.000000 0.312419 0.288110 -0.348503
5.185000 58.113399 44.272159 -0.000000 0.030182 0.358563 -0.103204 -299.064961 673.873574 -0.000000 0.310688 0.277244 -0.348231
5.190000 61.198418 47.679226 -0.000000 0.033235 0.369064 -0.103340 -293.819301 705.144732 -0.000000 0.308413 0.266734 -0.348134
5.195000 63.383216 49.458422 -0.000000 0.036940 0.379396 -0.103364 -284.042495 733.888920 -0.000000 0.305605 0.256391 -0.347891
5.200000 63.934281 49.516893 -0.000000 0.041172 0.389503 -0.103417 -270.422119 759.171128 -0.000000 0.302276 0.246481 -0.347531
5.205000 62.415808 47.672085 -0.000000 0.046062 0.399693 -0.103844 -251.889583 780.798338 -0.000000 0.298549 0.236769 -0.347077
5.210000 58.433949 44.047073 -0.000000 0.051854 0.409260 -0.103966 -230.317527 797.719205 -0.000000 0.294385 0.227400 -0.346663
5.215000 51.918156 38.702399 -0.000000 0.057637 0.418653 -0.104285 -206.234209 809.559560 -0.000000 0.289617 0.218336 -0.346504
5.220000 43.020590 31.731851 -0.000000 0.064158 0.427802 -0.104515 -179.581726 816.167240 -0.000000 0.284508 0.209511 -0.346195
5.225000 31.982198 23.419386 -0.000000 0.070857 0.436557 -0.104450 -152.283075 817.004127 -0.000000 0.278948 0.201063 -0.346032
5.230000 19.293742 13.993020 -0.000000 0.078324 0.445055 -0.104671 -123.451708 812.192378 -0.000000 0.272890 0.193066 -0.345830
5.235000 5.454935 3.870038 -0.000000 0.085861 0.452979 -0.104838 -95.672313 801.306280 -0.000000 0.266443 0.185637 -0.345333
5.240000 -8.946528 -6.567830 -0.000000 0.094279 0.460191 -0.105081 -67.742077 784.630423 -0.000000 0.259603 0.178684 -0.345244
5.245000 -23.374613 -16.841393 -0.000000 0.102303 0.467164 -0.105343 -41.707914 762.207574 -0.000000 0.252370 0.172064 -0.345185
5.250000 -37.353862 -26.395440 -0.000000 0.110944 0.473590 -0.105584 -16.784175 734.538132 -0.000000 0.244795 0.166056 -0.345381
5.255000 -50.423493 -34.760731 -0.000000 0.119742 0.479363 -0.105790 5.673601 702.215347 -0.000000 0.236938 0.160803 -0.345439
5.260000 -62.233777 -41.531844 -0.000000 0.128734 0.484429 -0.106019 25.970032 666.134900 -0.000000 0.228725 0.156155 -0.345668
5.265000 -72.509722 -46.448762 -0.000000 0.137920 0.488949 -0.106500 44.339917 627.344348 -0.000000 0.220148 0.152183 -0.345750
5.270000 -81.009024 -49.447116 -0.000000 0.147179 0.492948 -0.106692 60.701778 587.010533 -0.000000 0.211256 0.148756 -0.345750
5.275000 -87.569065 -50.594541 -0.000000 0.156365 0.496285 -0.106973 75.172984 546.267931 -0.000000 0.201987 0.145930 -0.345806
5.280000 -92.175117 -49.949886 -0.000000 0.165721 0.499013 -0.107355 88.374187 505.986261 -0.000000 0.192398 0.143787 -0.345729
5.285000 -94.847811 -47.697885 -0.000000 0.175085 0.500975 -0.107662 100.066106 466.866537 -0.000000 0.182606 0.142370 -0.345636
5.290000 -95.693967 -44.058264 -0.000000 0.183964 0.502303 -0.107681 109.659984 429.435356 -0.000000 0.172730 0.141626 -0.345555
5.295000 -95.079384 -38.880129 -0.000000 0.192919 0.502906 -0.107773 117.872471 393.631606 -0.000000 0.162852 0.141600 -0.345383
5.300000 -93.317723 -32.217392 -0.000000 0.201663 0.502614 -0.107759 124.050253 359.508270 -0.000000 0.153255 0.142299 -0.345454
5.305000 -90.862190 -23.857446 -0.000000 0.210187 0.501598 -0.107645 128.443229 326.790099 -0.000000 0.143741 0.143643 -0.345132
5.310000 -88.145665 -13.708203 -0.000000 0.218349 0.499880 -0.107422 130.773980 295.444221 -0.000000 0.134512 0.145735 -0.344832
5.315000 -85.650371 -1.608577 -0.000000 0.225992 0.497360 -0.107124 131.184330 265.452648 -0.000000 0.125501 0.148510 -0.344492
5.320000 -83.865121 12.623768 -0.000000 0.233272 0.493938 -0.106701 130.110264 236.843629 -0.000000 0.116708 0.151945 -0.344171
5.325000 -83.246913 29.104750 -0.000000 0.240076 0.489660 -0.106122 127.965992 209.824334 -0.000000 0.107921 0.156046 -0.343909
5.330000 -84.206225 47.862980 -0.000000 0.246900 0.484840 -0.105560 125.084093 184.792976 -0.000000 0.099608 0.160649 -0.343479
5.335000 -87.020665 68.955760 -0.000000 0.253278 0.479059 -0.105051 121.954645 162.103330 -0.000000 0.091473 0.166022 -0.342960
5.340000 -91.913084 92.319115 -0.000000 0.259315 0.472750 -0.104741 118.842245 142.212753 -0.000000 0.083667 0.171804 -0.342143
5.345000 -99.017007 117.884553 -0.000000 0.264788 0.465663 -0.104388 116.089348 125.403632 -0.000000 0.076243 0.178199 -0.342658
5.350000 -108.183576 145.661568 -0.000000 0.270019 0.457936 -0.104215 114.166058 111.629613 -0.000000 0.069126 0.185138 -0.342463
